#N canvas 858 242 438 269 10;
#X obj 31 4 notein;
#X obj 16 154 pack f f f;
#X obj 16 193 print OUT;
#X obj 47 57 change;
#X obj 16 127 f;
#X obj 46 84 t b f;
#X connect 0 0 4 1;
#X connect 0 1 3 0;
#X connect 0 2 1 1;
#X connect 1 0 2 0;
#X connect 3 0 5 0;
#X connect 4 0 1 0;
#X connect 5 0 4 0;
#X connect 5 1 1 2;
